# xmcd
#
# Track frame offsets:
#	150
#	5752
#	11424
#	12747
#	18588
#	25433
#	33394
#	42653
#	48471
#	55213
#	61390
#	65812
#	80799
#	86861
#	90279
#
# Disc length: 1267 seconds
#
# Revision: 1
# Processed by: cddbd v1.5.2PL0 Copyright (c) Steve Scherf et al.
# Submitted via: audiograbber 1.83.01
#
DISCID=ce04f10f
DTITLE=Various Artist - Die 60 größten Kinderhits - CD1
DYEAR=2014
DGENRE=kids
TTITLE0=Fuchs du hast die Gans gestohlen
TTITLE1=Hänsel und Gretel
TTITLE2=Alle meine Entchen
TTITLE3=Es tanzt ein Bi-Ba-Butzemann
TTITLE4=Suse liebe Suse
TTITLE5=Horch was kommt von draußen rein
TTITLE6=Vogelhochzeit
TTITLE7=Der Kuckuck und der Esel
TTITLE8=Hänschen klein
TTITLE9=Zeigt her eure Füßchen
TTITLE10=Kommt ein Vogel geflogen
TTITLE11=Das Wandern ist des Müllers Lust
TTITLE12=Taler, Taler
TTITLE13=Kuckuck, ruft's aus dem Wald
TTITLE14=Summ, summ, summ
EXTD=
EXTT0=
EXTT1=
EXTT2=
EXTT3=
EXTT4=
EXTT5=
EXTT6=
EXTT7=
EXTT8=
EXTT9=
EXTT10=
EXTT11=
EXTT12=
EXTT13=
EXTT14=
PLAYORDER=
